<svg width="486" height="91" xmlns="http://www.w3.org/2000/svg" role="img" data-icon="youtube" data-prefix="fab"
    focusable="false" aria-hidden="true">
    <g>
        <path stroke="null" id="svg_1"
            d="m127.41471,14.23842c-1.49665,-5.60456 -5.9063,-10.01853 -11.50522,-11.51648c-10.14844,-2.72194 -50.8425,-2.72194 -50.8425,-2.72194s-40.69383,0 -50.8425,2.72194c-5.59892,1.49818 -10.00857,5.91192 -11.50522,11.51648c-2.71928,10.15859 -2.71928,31.35353 -2.71928,31.35353s0,21.19494 2.71928,31.35353c1.49665,5.60456 5.9063,9.83464 11.50522,11.33258c10.14867,2.72194 50.8425,2.72194 50.8425,2.72194s40.69383,0 50.8425,-2.72194c5.59892,-1.49795 10.00857,-5.72802 11.50522,-11.33258c2.71928,-10.15859 2.71928,-31.35353 2.71928,-31.35353s0,-21.19494 -2.71928,-31.35353zm-75.65696,50.59695l0,-38.48684l34.01216,19.24389l-34.01216,19.24295z"
            fill="currentColor" />
        <text transform="matrix(1.55013 0 0 1.90946 -74.4312 20.3495)" stroke="null" xml:space="preserve"
            text-anchor="start" font-family="Noto Sans JP" font-size="60" stroke-width="0" id="svg_2" y="34.50874"
            x="134.32615" fill="#000000">YouTube</text>
    </g>
</svg>